<?xml version="1.0" standalone="no"?>
<!DOCTYPE svg PUBLIC "-//W3C//DTD SVG 20010904//EN"
 "http://www.w3.org/TR/2001/REC-SVG-20010904/DTD/svg10.dtd">
<svg version="1.0" xmlns="http://www.w3.org/2000/svg"
 width="904.000000pt" height="904.000000pt" viewBox="0 0 904.000000 904.000000"
 preserveAspectRatio="xMidYMid meet">
<metadata>
Created by potrace 1.14, written by Peter Selinger 2001-2017
</metadata>
<g transform="translate(0.000000,904.000000) scale(0.100000,-0.100000)"
fill="#000000" stroke="none">
<path d="M646 5075 c-5 -13 -46 -15 -291 -15 -237 0 -285 -2 -285 -14 0 -8 7
-16 15 -20 13 -5 15 -48 15 -306 0 -258 -2 -301 -15 -306 -8 -4 -15 -12 -15
-20 0 -11 18 -14 75 -14 70 0 97 12 60 26 -12 5 -15 31 -15 150 l0 144 145 0
c132 0 147 -2 165 -20 11 -11 22 -20 25 -20 3 0 5 32 5 70 0 66 -12 92 -26 55
-5 -12 -32 -15 -160 -15 l-154 0 0 110 0 110 214 0 c118 0 221 -3 230 -6 9 -3
16 -12 16 -20 0 -8 7 -14 15 -14 12 0 15 14 15 70 0 53 -3 70 -14 70 -8 0 -16
-7 -20 -15z"/>
<path d="M3944 5075 c-5 -13 -46 -15 -285 -15 -232 0 -279 -2 -279 -14 0 -8 7
-16 15 -20 13 -5 15 -48 15 -306 0 -258 -2 -301 -15 -306 -8 -4 -15 -12 -15
-20 0 -12 47 -14 280 -14 240 0 281 -2 286 -15 4 -8 12 -15 20 -15 11 0 14 16
14 65 0 49 -3 65 -14 65 -8 0 -16 -7 -20 -15 -4 -13 -40 -15 -231 -15 l-225 0
0 120 0 120 150 0 c125 0 152 -3 156 -15 4 -8 12 -15 20 -15 11 0 14 17 14 70
0 56 -3 70 -15 70 -8 0 -15 -6 -15 -14 0 -22 -24 -26 -171 -26 l-139 0 0 115
0 115 215 0 c202 0 216 -1 235 -20 11 -11 22 -20 25 -20 3 0 5 32 5 70 0 66
-12 92 -26 55z"/>
<path d="M1700 5056 c-113 -24 -199 -89 -252 -188 -20 -37 -23 -57 -23 -148 0
-95 3 -110 27 -156 35 -67 115 -138 186 -165 69 -26 215 -36 290 -20 121 26
204 88 254 189 30 60 33 75 33 152 -1 70 -5 95 -27 142 -75 161 -274 241 -488
194z m272 -93 c106 -48 165 -150 155 -269 -8 -105 -57 -172 -162 -220 -78 -36
-200 -38 -286 -5 -67 25 -139 96 -160 157 -17 51 -15 149 4 195 29 71 101 132
187 160 48 16 211 5 262 -18z"/>
<path d="M6160 5056 c-113 -24 -199 -89 -252 -188 -20 -37 -23 -57 -23 -148 0
-95 3 -110 27 -156 35 -67 115 -138 186 -165 69 -26 215 -36 290 -20 121 26
204 88 254 189 30 60 33 75 33 152 -1 70 -5 95 -27 142 -75 161 -274 241 -488
194z m272 -93 c106 -48 165 -150 155 -269 -8 -105 -57 -172 -162 -220 -78 -36
-200 -38 -286 -5 -67 25 -139 96 -160 157 -17 51 -15 149 4 195 29 71 101 132
187 160 48 16 211 5 262 -18z"/>
<path d="M8520 5057 c-73 -17 -139 -54 -167 -96 -69 -102 -24 -220 97 -255 30
-9 121 -19 201 -24 112 -7 153 -13 177 -27 55 -33 61 -97 14 -149 -66 -72
-241 -81 -379 -20 -73 32 -92 49 -85 76 10 39 -22 13 -56 -45 -32 -54 -36 -91
-8 -67 10 7 33 1 87 -24 106 -48 165 -59 280 -54 84 4 108 9 156 34 75 39 114
89 121 153 6 64 -2 92 -34 131 -44 51 -75 61 -228 71 -206 14 -222 17 -256 45
-55 47 -36 114 43 157 36 19 57 22 152 22 95 0 118 -4 170 -25 50 -21 60 -29
60 -49 1 -44 19 -32 54 34 32 59 37 95 10 68 -8 -8 -34 -2 -92 19 -96 35 -228
45 -317 25z"/>
<path d="M780 5046 c0 -8 7 -16 15 -20 13 -5 15 -48 15 -310 0 -261 -2 -305
-15 -310 -8 -3 -15 -10 -15 -16 0 -7 96 -10 284 -10 243 0 285 -2 290 -15 13
-35 26 -11 26 50 0 66 -7 78 -30 50 -10 -12 -49 -15 -231 -15 l-219 0 0 285
c0 245 2 286 15 291 8 4 15 12 15 20 0 11 -18 14 -75 14 -57 0 -75 -3 -75 -14z"/>
<path d="M2240 5045 c0 -8 7 -15 15 -15 21 0 33 -26 139 -320 95 -262 106
-300 86 -300 -5 0 -10 -7 -10 -15 0 -12 16 -15 85 -15 47 0 85 3 85 7 0 3 -7
14 -15 23 -13 14 -6 42 66 261 45 134 85 248 89 252 7 7 181 -475 180 -500 0
-7 -4 -13 -10 -13 -5 0 -10 -7 -10 -15 0 -12 16 -15 80 -15 62 0 80 3 80 14 0
8 -7 16 -15 20 -12 4 2 54 75 267 105 304 123 349 144 349 9 0 16 7 16 15 0
12 -16 15 -80 15 -80 0 -98 -9 -65 -34 13 -10 4 -45 -69 -261 -72 -217 -85
-247 -93 -225 -6 14 -45 126 -87 250 -68 197 -75 226 -62 236 35 25 16 34 -74
34 -90 0 -109 -9 -75 -34 13 -9 3 -46 -73 -264 l-89 -253 -88 252 c-79 227
-86 254 -71 264 35 26 17 35 -69 35 -69 0 -85 -3 -85 -15z"/>
<path d="M4100 5047 c0 -8 7 -17 15 -21 13 -5 15 -48 15 -306 0 -258 -2 -301
-15 -306 -8 -4 -15 -12 -15 -20 0 -11 18 -14 75 -14 41 0 75 3 75 8 0 4 -9 15
-20 25 -18 15 -20 29 -20 142 l0 125 128 0 127 -1 82 -132 c45 -73 78 -133 73
-135 -6 -2 -10 -10 -10 -18 0 -11 18 -14 80 -14 79 0 99 8 60 26 -15 7 -190
263 -190 279 0 3 8 5 19 5 31 0 84 27 113 57 89 94 51 248 -72 293 -23 9 -117
14 -277 18 -212 4 -243 2 -243 -11z m500 -83 c24 -13 39 -33 49 -60 13 -37 12
-44 -5 -80 -30 -61 -54 -68 -256 -72 l-178 -4 0 122 0 122 178 -3 c156 -4 181
-7 212 -25z"/>
<path d="M4780 5045 c0 -8 7 -15 16 -15 8 0 22 -17 31 -37 30 -73 203 -556
203 -568 0 -7 -7 -15 -15 -19 -8 -3 -15 -10 -15 -16 0 -6 35 -10 90 -10 88 0
109 8 73 29 -17 9 -11 31 67 265 46 141 87 256 90 256 3 0 44 -113 93 -252 79
-227 86 -253 72 -268 -8 -9 -15 -20 -15 -23 0 -4 38 -7 85 -7 86 0 104 9 69
34 -13 10 -3 47 85 301 66 188 108 296 121 307 36 29 24 38 -55 38 -75 0 -92
-10 -60 -34 12 -9 2 -46 -66 -246 -43 -129 -82 -242 -85 -250 -3 -8 -44 97
-91 234 -78 226 -85 250 -70 261 36 26 18 35 -73 35 -90 0 -108 -8 -76 -34 12
-9 0 -52 -72 -258 -48 -136 -90 -244 -94 -240 -10 10 -168 468 -168 486 0 9 7
16 15 16 8 0 15 7 15 15 0 12 -16 15 -85 15 -69 0 -85 -3 -85 -15z"/>
<path d="M6800 5046 c0 -9 6 -16 14 -16 8 0 17 -7 20 -16 3 -9 6 -144 6 -300
0 -272 -1 -285 -20 -301 -11 -10 -20 -21 -20 -25 0 -5 34 -8 75 -8 57 0 75 3
75 14 0 8 -7 16 -15 20 -12 4 -15 29 -15 136 l0 131 127 -3 126 -3 82 -130
c64 -101 80 -132 69 -138 -31 -18 -10 -27 66 -27 48 0 80 4 80 10 0 6 -7 13
-15 16 -14 6 -191 272 -184 278 2 1 24 8 49 15 65 19 116 74 125 135 14 90
-28 168 -107 202 -36 15 -82 18 -290 22 -223 4 -248 3 -248 -12z m507 -79 c41
-22 53 -44 53 -97 0 -98 -33 -113 -262 -118 l-178 -4 0 122 0 122 178 -4 c142
-3 183 -7 209 -21z"/>
<path d="M7570 5046 c0 -8 7 -16 15 -20 13 -5 15 -48 15 -310 0 -261 -2 -305
-15 -310 -37 -14 -10 -26 60 -26 57 0 75 3 75 14 0 8 -7 16 -15 20 -12 4 -15
27 -15 115 l0 110 72 55 c39 31 75 53 79 49 3 -5 61 -79 129 -166 89 -116 119
-162 111 -170 -22 -22 -9 -27 74 -27 55 0 85 4 85 11 0 6 -8 13 -17 16 -16 4
-329 392 -321 397 2 2 67 53 146 114 79 62 150 112 158 112 8 0 14 7 14 15 0
12 -17 15 -90 15 -71 0 -90 -3 -90 -14 0 -8 5 -16 12 -18 10 -4 -89 -86 -319
-266 l-43 -34 0 146 c0 121 3 148 15 152 8 4 15 12 15 20 0 11 -18 14 -75 14
-57 0 -75 -3 -75 -14z"/>
<path d="M4541 4054 c-12 -15 -21 -34 -21 -42 0 -9 25 -39 55 -67 56 -52 70
-87 39 -99 -27 -10 -43 -7 -64 16 -15 16 -23 19 -32 10 -16 -16 14 -58 48 -66
60 -15 116 41 95 95 -5 14 -30 42 -55 63 -47 38 -59 69 -30 80 17 7 54 -10 54
-24 0 -5 7 -7 15 -4 22 9 18 30 -7 48 -34 24 -73 20 -97 -10z"/>
<path d="M3360 3940 c0 -109 2 -130 15 -130 12 0 15 13 15 60 l0 60 45 0 c35
0 52 6 70 25 28 27 31 45 14 78 -18 33 -28 37 -96 37 l-63 0 0 -130z m124 78
c18 -29 -4 -53 -53 -56 l-41 -3 0 41 0 41 41 -3 c27 -2 46 -9 53 -20z"/>
<path d="M3712 3940 c-55 -117 -59 -130 -41 -130 14 0 26 12 37 40 17 40 17
40 73 40 56 0 56 0 74 -40 11 -25 25 -40 36 -40 22 0 22 0 -50 153 -28 59 -54
107 -59 107 -5 0 -36 -58 -70 -130z m76 -8 c-40 -4 -43 0 -22 39 l17 33 17
-35 18 -34 -30 -3z"/>
<path d="M4040 3940 c0 -109 2 -130 15 -130 12 0 15 13 15 58 l0 57 51 -57
c36 -42 58 -58 76 -58 23 0 19 6 -42 73 l-67 72 63 58 c58 52 61 57 38 57 -16
0 -44 -16 -73 -41 l-46 -41 0 41 c0 30 -4 41 -15 41 -13 0 -15 -21 -15 -130z"/>
<path d="M4350 3940 c0 -109 2 -130 15 -130 13 0 15 21 15 130 0 109 -2 130
-15 130 -13 0 -15 -21 -15 -130z"/>
<path d="M4780 4055 c0 -10 10 -15 30 -15 l30 0 0 -115 c0 -96 3 -115 15 -115
12 0 15 19 15 115 l0 115 30 0 c20 0 30 5 30 15 0 12 -15 15 -75 15 -60 0 -75
-3 -75 -15z"/>
<path d="M5102 3940 c-55 -117 -59 -130 -41 -130 14 0 26 12 37 40 17 40 17
40 73 40 56 0 56 0 74 -40 11 -25 25 -40 36 -40 22 0 22 0 -50 153 -28 59 -54
107 -59 107 -5 0 -36 -58 -70 -130z m76 -8 c-40 -4 -43 0 -22 39 l17 33 17
-35 18 -34 -30 -3z"/>
<path d="M5430 3940 c0 -107 3 -130 15 -130 11 0 15 19 17 92 l3 91 79 -89
c44 -49 83 -90 88 -92 4 -2 8 55 8 127 0 108 -3 131 -15 131 -11 0 -15 -19
-17 -92 l-3 -92 -79 92 c-44 51 -84 92 -88 92 -4 0 -8 -58 -8 -130z"/>
</g>
</svg>
